<svg xmlns="http://www.w3.org/2000/svg" width="158" height="50" viewBox="0 0 158 50" version="1.1">
	<path d="M 0 25.006 L 0 50.012 79.250 49.756 L 158.500 49.500 158.767 24.750 L 159.035 0 79.517 0 L 0 0 0 25.006 M 0.434 25.500 C 0.433 39.250, 0.574 45.014, 0.747 38.308 C 0.919 31.603, 0.920 20.353, 0.748 13.308 C 0.576 6.264, 0.434 11.750, 0.434 25.500 M 87 25 C 87 35, 87.375 41, 88 41 C 88.625 41, 89 35, 89 25 C 89 15, 88.625 9, 88 9 C 87.375 9, 87 15, 87 25 M 11.455 13.455 C 8.023 16.886, 7.905 25.660, 11.250 28.688 C 16.460 33.402, 23.919 31.805, 25.990 25.532 C 27.463 21.066, 26.570 15.570, 23.944 12.944 C 21.052 10.052, 14.593 10.316, 11.455 13.455 M 53 13 C 53 14.506, 53.522 15.046, 54.750 14.810 C 55.712 14.624, 56.500 13.810, 56.500 13 C 56.500 12.190, 55.712 11.376, 54.750 11.190 C 53.522 10.954, 53 11.494, 53 13 M 74 20.418 C 74 29.759, 74.482 31, 78.107 31 C 81.199 31, 82.167 28.662, 79.500 27.638 C 78.559 27.277, 78 25.748, 78 23.531 C 78 21.059, 78.450 20, 79.500 20 C 80.325 20, 81 19.325, 81 18.500 C 81 17.675, 80.325 17, 79.500 17 C 78.667 17, 78 16.111, 78 15 C 78 13.667, 77.333 13, 76 13 C 74.180 13, 74 13.667, 74 20.418 M 14.655 15.829 C 11.303 19.532, 13.168 28, 17.335 28 C 20.733 28, 22 26.099, 22 21 C 22 14.311, 18.353 11.743, 14.655 15.829 M 17.234 18.785 C 15.869 21.676, 15.579 26.004, 16.750 25.992 C 17.752 25.982, 20 21.047, 20 18.860 C 20 16.018, 18.558 15.979, 17.234 18.785 M 29 24.096 C 29 30.333, 29.193 31, 31 31 C 32.735 31, 33 30.333, 33 25.969 C 33 22.278, 33.427 20.774, 34.601 20.323 C 36.798 19.480, 37.966 21.700, 37.985 26.750 C 37.998 30.328, 38.316 31, 40 31 C 41.758 31, 42 30.333, 42 25.500 C 42 20.667, 42.242 20, 44 20 C 45.758 20, 46 20.667, 46 25.500 C 46 30.333, 46.242 31, 48 31 C 49.770 31, 50 30.333, 50 25.200 C 50 22.010, 49.460 18.860, 48.800 18.200 C 47.321 16.721, 43.349 16.626, 42.470 18.049 C 42.038 18.747, 41.422 18.765, 40.626 18.104 C 39.967 17.558, 37.083 17.129, 34.215 17.152 L 29 17.192 29 24.096 M 53 24 C 53 30.333, 53.190 31, 55 31 C 56.810 31, 57 30.333, 57 24 C 57 17.667, 56.810 17, 55 17 C 53.190 17, 53 17.667, 53 24 M 59 24.115 C 59 30.333, 59.194 31, 61 31 C 62.684 31, 63.002 30.328, 63.015 26.750 C 63.034 21.700, 64.202 19.480, 66.399 20.323 C 67.573 20.774, 68 22.278, 68 25.969 C 68 30.333, 68.265 31, 70 31 C 71.773 31, 72 30.333, 72 25.122 C 72 21.630, 71.493 18.832, 70.750 18.227 C 70.063 17.666, 67.138 17.213, 64.250 17.219 L 59 17.231 59 24.115 M 95 20.878 C 95 22.601, 98.042 29, 98.862 29 C 99.321 29, 100.404 27.200, 101.268 25 C 102.132 22.800, 102.414 21, 101.895 21 C 101.375 21, 100.477 22.238, 99.898 23.750 L 98.845 26.500 97.471 23.250 C 96.153 20.133, 95 19.026, 95 20.878 M 109.010 24.226 C 107.970 26.550, 107.378 28.688, 107.696 28.976 C 108.014 29.264, 108.475 28.938, 108.720 28.250 C 109.288 26.661, 112.232 26.632, 113.800 28.200 C 114.733 29.133, 115 29.126, 115 28.168 C 115 26.457, 112.235 20, 111.502 20 C 111.172 20, 110.051 21.902, 109.010 24.226 M 117.571 21.571 C 115.658 23.485, 115.586 25.052, 117.306 27.404 C 119.149 29.925, 123.405 29.171, 123.820 26.250 C 124.027 24.789, 123.622 24, 122.663 24 C 121.680 24, 121.362 24.667, 121.710 26 C 122.324 28.348, 120.777 28.642, 119.011 26.513 C 117.174 24.300, 118.549 22.002, 121.719 21.985 C 123.882 21.973, 124.167 21.754, 123 21 C 120.859 19.616, 119.370 19.773, 117.571 21.571 M 126.667 20.667 C 126.300 21.033, 126 23.058, 126 25.167 C 126 28.853, 126.125 28.995, 129.250 28.864 C 131.600 28.765, 131.877 28.608, 130.250 28.294 C 129.012 28.056, 128 27.248, 128 26.500 C 128 25.752, 129.012 24.944, 130.250 24.706 L 132.500 24.272 130.250 24.136 C 127.468 23.968, 127.238 22, 130 22 C 131.100 22, 132 21.550, 132 21 C 132 19.888, 127.714 19.620, 126.667 20.667 M 134.033 24.309 C 134.013 27.268, 134.385 28.880, 135 28.500 C 135.550 28.160, 136 27.346, 136.001 26.691 C 136.001 26.036, 137.101 25.437, 138.445 25.359 C 140.207 25.258, 141.007 25.817, 141.309 27.359 C 141.539 28.537, 141.774 27.250, 141.831 24.500 L 141.933 19.500 139.967 21.861 L 138 24.222 136.033 21.861 L 134.067 19.500 134.033 24.309 M 104 25 C 104 27.200, 104.450 29, 105 29 C 105.550 29, 106 27.200, 106 25 C 106 22.800, 105.550 21, 105 21 C 104.450 21, 104 22.800, 104 25 M 50.262 35.823 C 50.338 36.837, 50.985 37.667, 51.700 37.667 C 53.368 37.667, 53.338 37.196, 51.561 35.419 C 50.310 34.167, 50.141 34.220, 50.262 35.823 M 54 36.059 C 54 37.191, 54.430 37.852, 54.956 37.527 C 55.482 37.202, 55.659 36.275, 55.349 35.468 C 54.556 33.401, 54 33.644, 54 36.059 M 58.446 35.087 C 58.077 35.685, 58.179 36.579, 58.673 37.073 C 59.204 37.604, 59.571 37.160, 59.571 35.986 C 59.571 33.713, 59.386 33.566, 58.446 35.087 M 62.250 35.556 C 60.456 37.507, 60.631 37.695, 64.250 37.701 C 66.037 37.704, 66.740 37.520, 65.811 37.292 C 64.883 37.064, 63.983 36.274, 63.811 35.537 C 63.553 34.423, 63.289 34.426, 62.250 35.556 M 68.079 35.537 C 68.027 36.888, 68.674 37.625, 70 37.725 C 71.364 37.828, 72 37.259, 72 35.938 C 72 34.872, 71.523 34, 70.941 34 C 70.359 34, 70.160 34.450, 70.500 35 C 70.840 35.550, 70.679 36, 70.142 36 C 69.606 36, 68.940 35.438, 68.662 34.750 C 68.385 34.063, 68.122 34.417, 68.079 35.537 M 73.116 35.750 C 73.032 37.372, 73.558 38, 75 38 C 76.442 38, 76.968 37.372, 76.884 35.750 C 76.797 34.057, 76.655 33.933, 76.311 35.250 C 76.059 36.212, 75.469 37, 75 37 C 74.531 37, 73.941 36.212, 73.689 35.250 C 73.345 33.933, 73.203 34.057, 73.116 35.750 M 78.275 36 C 78.358 37.100, 79.005 38, 79.713 38 C 81.175 38, 81.237 37.781, 80.393 35.582 C 79.531 33.336, 78.096 33.620, 78.275 36" stroke="none" fill="black" fill-rule="evenodd"/>
</svg>